<svg width="18" height="18" viewBox="0 0 18 18" xmlns="http://www.w3.org/2000/svg">
<path d="M17.1633 15.8367L13.4531 12.125C14.5656 10.6754 15.0849 8.85687 14.9059 7.03839C14.7268 5.21991 13.8628 3.53763 12.489 2.3328C11.1152 1.12798 9.33451 0.490822 7.50822 0.550592C5.68193 0.610363 3.94675 1.36258 2.65467 2.65466C1.3626 3.94673 0.610378 5.68191 0.550608 7.50821C0.490837 9.3345 1.12799 11.1151 2.33282 12.4889C3.53765 13.8627 5.21993 14.7268 7.03841 14.9059C8.85688 15.0849 10.6754 14.5655 12.125 13.4531L15.8383 17.1672C15.9255 17.2544 16.029 17.3236 16.143 17.3708C16.2569 17.418 16.379 17.4423 16.5024 17.4423C16.6257 17.4423 16.7478 17.418 16.8617 17.3708C16.9757 17.3236 17.0792 17.2544 17.1664 17.1672C17.2536 17.08 17.3228 16.9765 17.37 16.8625C17.4172 16.7486 17.4415 16.6265 17.4415 16.5031C17.4415 16.3798 17.4172 16.2577 17.37 16.1437C17.3228 16.0298 17.2536 15.9263 17.1664 15.8391L17.1633 15.8367ZM2.43752 7.75C2.43752 6.69929 2.74909 5.67217 3.33283 4.79853C3.91658 3.9249 4.74628 3.24398 5.71701 2.84189C6.68774 2.4398 7.75591 2.33459 8.78643 2.53958C9.81696 2.74456 10.7636 3.25053 11.5065 3.9935C12.2495 4.73646 12.7555 5.68306 12.9604 6.71358C13.1654 7.74411 13.0602 8.81227 12.6581 9.78301C12.256 10.7537 11.5751 11.5834 10.7015 12.1672C9.82785 12.7509 8.80073 13.0625 7.75002 13.0625C6.3415 13.0611 4.99108 12.5009 3.99511 11.5049C2.99914 10.5089 2.43896 9.15852 2.43752 7.75Z"/>
</svg>
